inDegrees=no
num_controls=7
num_derivatives=13
num_iterations=201
num_multipliers=7
num_parameters=0
num_slacks=7
num_states=26
objective=5.556000
objective_accelerations=0.668846
objective_balance=0.043309
objective_effort=0.247828
objective_height=4.528841
objective_ligament=0.067175
solver_duration=2211.535426
status=Solve_Succeeded
success=true
DataType=double
version=3
OpenSimVersion=4.4-2022-07-23-0e9fedc
endheader
time	/jointset/ground_pelvis/pelvis_tilt/value	/jointset/ground_pelvis/pelvis_tx/value	/jointset/ground_pelvis/pelvis_ty/value	/jointset/hip_l/hip_flexion_l/value	/jointset/hip_l/hip_adduction_l/value	/jointset/hip_l/hip_rotation_l/value	/jointset/back/lumbar_extension/value	/jointset/patellofemoral_l/patellar_flexion_l/value	/jointset/knee_l/knee_flexion_l/value	/jointset/knee_l/knee_adduction_l/value	/jointset/knee_l/knee_rotation_l/value	/jointset/ankle_l/ankle_angle_l/value	/jointset/subtalar_l/subtalar_angle_l/value	/jointset/ground_pelvis/pelvis_tilt/speed	/jointset/ground_pelvis/pelvis_tx/speed	/jointset/ground_pelvis/pelvis_ty/speed	/jointset/hip_l/hip_flexion_l/speed	/jointset/hip_l/hip_adduction_l/speed	/jointset/hip_l/hip_rotation_l/speed	/jointset/back/lumbar_extension/speed	/jointset/patellofemoral_l/patellar_flexion_l/speed	/jointset/knee_l/knee_flexion_l/speed	/jointset/knee_l/knee_adduction_l/speed	/jointset/knee_l/knee_rotation_l/speed	/jointset/ankle_l/ankle_angle_l/speed	/jointset/subtalar_l/subtalar_angle_l/speed	/forceset/tau_hip_flexion_l	/forceset/tau_hip_adduction_l	/forceset/tau_hip_rotation_l	/forceset/tau_knee_flexion_l	/forceset/tau_ankle_angle_l	/forceset/tau_subtalar_angle_l	/forceset/tau_lumbar_extension	lambda_cid13_p0	lambda_cid13_p1	lambda_cid13_p2	lambda_cid13_p3	lambda_cid13_p4	lambda_cid13_p5	lambda_cid14_p0	/jointset/ground_pelvis/pelvis_tilt/accel	/jointset/ground_pelvis/pelvis_tx/accel	/jointset/ground_pelvis/pelvis_ty/accel	/jointset/hip_l/hip_flexion_l/accel	/jointset/hip_l/hip_adduction_l/accel	/jointset/hip_l/hip_rotation_l/accel	/jointset/back/lumbar_extension/accel	/jointset/patellofemoral_l/patellar_flexion_l/accel	/jointset/knee_l/knee_flexion_l/accel	/jointset/knee_l/knee_adduction_l/accel	/jointset/knee_l/knee_rotation_l/accel	/jointset/ankle_l/ankle_angle_l/accel	/jointset/subtalar_l/subtalar_angle_l/accel	gamma_cid13_p0	gamma_cid13_p1	gamma_cid13_p2	gamma_cid13_p3	gamma_cid13_p4	gamma_cid13_p5	gamma_cid14_p0
0.5	-0.241790524179461	0.02206888791017844	0.7739748587077613	0.9315994905176863	-0.445168021141705	-0.231175219365617	-0.2504557984429436	0.8515903294753103	0.8515903294752843	-0.1115013949513487	-0.1674626684050201	0.224509955527521	0.02522537511332548	-0.5156022838937697	-0.08123701317517053	-0.4904330864784361	2.041065170842915	-0.2330711208474224	0.7761616043705845	-0.138943274770328	2.102973414590561	2.102973414590497	0.1620438171005236	-0.04893490355534827	0.7678483005483635	0.1648402435186466	-0.1252786563983933	0.02884765221924809	-0.01336806994962773	-0.2304573203265959	-0.0007606443237442248	0.03755771850155041	0.1379529576791961	-32.26007233359443	-15.01615642118522	7.030634896699658	-0.3016884473537664	-522.5009170594042	-68.49547218707997	-23.20803031901424	0.4498697988044371	0.3709191028252185	-0.4820167469844894	-1.006502126977775	0.6841703383344335	-0.3292751365430924	0.9878372098284032	-1.402806327681321	-1.402806327681326	0.01618505148008905	0.1378581058853243	-0.6696581240397598	0.5625850198060335	-6.299521191073277e-07	-2.157641162339304e-07	3.552927215965493e-06	2.106911610915501e-07	-6.868957908689799e-07	-6.622466503116504e-07	-4.778656848500201e-07
0.51	-0.2469228015242354	0.02127516266239726	0.7690475274774818	0.9519557737904756	-0.4474655423144699	-0.2234279830885591	-0.2517965582332284	0.8725465833368173	0.8725465833368158	-0.1098848947223768	-0.1679441933019257	0.2321533878780645	0.0268997736353977	-0.5107830431536409	-0.0775034392637461	-0.4949251189986801	2.029905886859915	-0.2264229543685991	0.7731819111687022	-0.1292231433268496	2.087991926357472	2.087991926357408	0.1612478505971422	-0.0473720855668885	0.7607280464113531	0.1700045775233792	-0.1294523758290725	0.02999636111227757	-0.01321024437666993	-0.2335954966140531	-0.00351511183470192	0.0376023577519868	0.1412765813382246	-33.30350277607369	-14.81626387765048	6.956979487426497	0.1005187249698702	-525.7748127474235	-68.34648250071172	-22.21311156408174	0.5083911727782019	0.3753113041052463	-0.4167261023240302	-1.213575690752308	0.6561717498496354	-0.2983067384329824	0.9619321055615569	-1.588540361920339	-1.588540361920259	-0.1286466030567104	0.1658772053536476	-0.7497315777475257	0.4877309096105662	-6.005985011141497e-07	-6.874455393613801e-08	3.566498690201251e-06	2.419866777610029e-07	-6.705793887861369e-07	-5.319996737869928e-07	-4.637282831187104e-07
0.52	-0.2520047984693768	0.02051892010749117	0.7640784900024439	0.9721918773920779	-0.4496963754330078	-0.2157137418088027	-0.2530405505102873	0.8933444782578333	0.8933444782578573	-0.1082765859788002	-0.1684100133069424	0.2397223131833954	0.028624690161278	-0.5055462039670692	-0.07374047460015093	-0.4987743354301118	2.017029236605269	-0.2197335100020439	0.7695626049099331	-0.1195897721252117	2.071301626492478	2.071301626492414	0.1604055200213838	-0.04579392517733472	0.752946891505709	0.17494384428026	-0.1336260952597327	0.03114507000531787	-0.01305241880373083	-0.2367336729015071	-0.006269579345656815	0.03764699700243949	0.1446002049972663	-34.34862597398032	-14.61585143559197	6.88298855252241	0.4637826490956958	-529.0951602424369	-68.25984527173185	-21.22444080126759	0.5333894880930009	0.3767972532593686	-0.3534535292220286	-1.349975381306847	0.692425915880822	-0.4571977479204309	0.9704851614603092	-1.744568654062402	-1.74456865406241	0.006912237004698685	0.1409265861041273	-0.8018382777664721	0.5175715702356765	-5.675990554472864e-07	8.060259944822728e-08	3.563273047278418e-06	2.742740924390509e-07	-6.547321300586565e-07	-3.95214122211662e-07	-4.468928076123882e-07
0.53	-0.2570324389952497	0.01980039864137093	0.7590742137218724	0.9922908765842026	-0.4518600541504924	-0.2080385074874224	-0.254188714988209	0.9139670975885675	0.9139670975885923	-0.1066770048851008	-0.1688597481405258	0.2472102262852176	0.0303979616241353	-0.4999150762099601	-0.06996398834061746	-0.5019689761698413	2.002494108819966	-0.2129974989711091	0.765383501993456	-0.1100702599669359	2.05294963006486	2.052949630064827	0.159500880793623	-0.04415531290000949	0.7445319166419345	0.1796703312347853	-0.1377045289448311	0.03215472989182445	-0.01281768883841471	-0.2400282781430165	-0.008920409105044562	0.0375543592431711	0.147822273917852	-35.37088228825349	-14.34711018120444	6.783579904786461	0.8902891845812221	-532.4625032006616	-68.10023361362171	-20.24697113729646	0.5879179112966223	0.3781071014201551	-0.2858069508632708	-1.546849162692565	0.6643814712439416	-0.4137758172048729	0.9386137668428064	-1.921318965557647	-1.921318965552933	-0.1405032749331324	0.1756788614244775	-0.876885081387822	0.4437271995721705	-5.285445858206729e-07	2.186659559973217e-07	3.518742912024803e-06	3.005206657498956e-07	-6.310552711902496e-07	-2.569625091674095e-07	-4.263312396339473e-07
0.54	-0.2620017795451967	0.01911964859567	0.7540413235130009	1.012236210961362	-0.4539563342027593	-0.2004081660459435	-0.2552424984397824	0.9343980361893366	0.934398036189363	-0.1050867404381308	-0.169293026788761	0.2546108780402616	0.03221720594484008	-0.4938862087817825	-0.06618619051628864	-0.5044971210901699	1.986296273612637	-0.2062537769584104	0.760584028929239	-0.1007135668553971	2.032965480499394	2.032965480499394	0.1585421906751964	-0.04250268810757375	0.7354946221499649	0.1841384158497593	-0.1417829626299403	0.03316438977833853	-0.0125829588731216	-0.243322883384525	-0.0115712388644286	0.0374617214839155	0.1510443428384237	-36.3939783166057	-14.07718497776987	6.682800751405345	1.276836610424376	-535.8594284407695	-67.99611333202913	-19.28327145397579	0.6129374223066907	0.3770595662184349	-0.2201543653418788	-1.682516865712422	0.6939681122336061	-0.5812717774683573	0.9379213521128877	-2.070999281631906	-2.070999281631834	-0.003897941128466678	0.1437290891262301	-0.9263022034054856	0.4658911023253837	-4.827909407492297e-07	3.442451117924992e-07	3.428514189511599e-06	3.200837549948983e-07	-5.987158759957107e-07	-1.170888706681801e-07	-4.016471863672049e-07
0.55	-0.266908955161738	0.01847662236891342	0.7489865052032392	1.032011547565094	-0.4559850478298937	-0.192828715423949	-0.2562035683667171	0.9546211738840642	0.9546211738840965	-0.1035062244072851	-0.1697095685742271	0.2619181580024365	0.03407998184925327	-0.4874833516932703	-0.0624244060143353	-0.506351818360624	1.968502301129059	-0.1994898446815008	0.7552101261468946	-0.09154117468886606	2.011402042368556	2.011402042368544	0.1575463669318068	-0.04080792685808295	0.7258628034084273	0.1883697214060733	-0.1457838548988354	0.03411793487531458	-0.01226334022838927	-0.2467047576783976	-0.01419071569178368	0.03721990594751792	0.1541732617996283	-37.41643430658535	-13.72687251908935	6.551256862233836	1.750610361374365	-539.2738355337492	-67.78981282308624	-18.33535574423557	0.6637196333258225	0.3750013661968031	-0.1510352479052091	-1.868236804269487	0.6669600177563804	-0.5301915096594251	0.9007847253101134	-2.237940853791306	-2.237940853793002	-0.1494884946099911	0.1826752283674202	-0.996376815902189	0.3942311082782384	-4.351864391325542e-07	4.684398677048895e-07	3.329471711595748e-06	3.380767959465486e-07	-5.643583663735831e-07	2.17841880408996e-08	-3.75900743944136e-07
0.5600000000000001	-0.2717501502511542	0.017871066681979	0.7439165583527713	1.051600864571075	-0.4579462512877917	-0.1853059522259851	-0.2570741370567087	0.9746208922424855	0.9746208922425255	-0.1019360793946056	-0.1701090976300996	0.2691261687559214	0.03598356697442834	-0.4806901033566643	-0.05869208255185625	-0.5075228292313997	1.949092354061921	-0.1927517431111227	0.7492465441228718	-0.08261331946685968	1.988281613238458	1.988281613238435	0.156467987041786	-0.03910014218831504	0.7156407804119177	0.1923002600021408	-0.1497847471677099	0.0350714799722979	-0.01194372158363787	-0.2500866319722693	-0.01681019251913811	0.03697809041113036	0.1573021807608499	-38.43989819025184	-13.37413488960199	6.41676031399349	2.188316975168433	-542.7140240831136	-67.6320709865811	-17.40476470753203	0.6910156719254484	0.3711673583235769	-0.08341708540617848	-2.005711782424372	0.6888019709273135	-0.6992076258040749	0.8890139632079455	-2.382397481483753	-2.382397481483776	-0.02040917045470841	0.1463337731816527	-1.044343054399898	0.4057377102760901	-3.853609096616004e-07	5.90973343757935e-07	3.219852727196723e-06	3.54185778946176e-07	-5.275791194383494e-07	1.594565510017996e-07	-3.488794345334754e-07
0.5700000000000001	-0.2765216898504071	0.01730265496884361	0.7388383248051715	1.07098838428486	-0.4598400719195937	-0.177845670670398	-0.2578566064049001	0.9943818205223925	0.994381820522427	-0.1003768929479381	-0.1704913474054557	0.276229161523399	0.03792517758864004	-0.4735620254248016	-0.05499778886168401	-0.5080073437536212	1.928155061216002	-0.1860165823717578	0.7427110019970224	-0.07393051200954856	1.963655435623559	1.963655435623553	0.1553582007243512	-0.03735331060928276	0.7048682563152485	0.1959730531676182	-0.1535366847023719	0.03559414649231765	-0.0115424698629894	-0.2538327335134676	-0.01910059961872008	0.03676293886563565	0.1602183880481267	-39.35963496894058	-13.05124636576131	6.287142356651967	2.587003894813475	-546.1460464869961	-67.61285586756868	-16.49254441693082	0.7320044149440662	0.3675037159868396	-0.01358951033226815	-2.176297176205065	0.6647459484537346	-0.6458361327098682	0.8504198612515006	-2.539952250464216	-2.539952250461706	-0.1577832653898623	0.1889639239642676	-1.107088092426866	0.3402514164149184	-3.286672562912679e-07	6.733184921623477e-07	3.006328742274273e-06	3.552008413696781e-07	-4.785351280230177e-07	2.732804608023138e-07	-3.130373421375353e-07
